HIERARCHY
ROOT Hips
{
	OFFSET 0.000000 0.000000 0.000000 
	CHANNELS 6 Xposition Yposition Zposition Zrotation Yrotation Xrotation
	JOINT LeftUpLeg
	{
		OFFSET 1.363060 -1.794630 0.839290 
		CHANNELS 3 Zrotation Yrotation Xrotation
		JOINT LeftLeg
		{
			OFFSET 2.448110 -6.726130 0.000000 
			CHANNELS 3 Zrotation Yrotation Xrotation
			JOINT LeftFoot
			{
				OFFSET 2.562200 -7.039590 0.000000 
				CHANNELS 3 Zrotation Yrotation Xrotation
				JOINT LeftToeBase
				{
					OFFSET 0.157640 -0.433110 2.322550 
					CHANNELS 3 Zrotation Yrotation Xrotation
					End Site
					{
						OFFSET 0.000000 0.000000 0.000000 
					}
				}
			}
		}
	}
	JOINT RightUpLeg
	{
		OFFSET -1.305520 -1.794630 0.839290 
		CHANNELS 3 Zrotation Yrotation Xrotation
		JOINT RightLeg
		{
			OFFSET -2.542530 -6.985550 0.000000 
			CHANNELS 3 Zrotation Yrotation Xrotation
			JOINT RightFoot
			{
				OFFSET -2.568260 -7.056230 0.000000 
				CHANNELS 3 Zrotation Yrotation Xrotation
				JOINT RightToeBase
				{
					OFFSET -0.164730 -0.452590 2.363150 
					CHANNELS 3 Zrotation Yrotation Xrotation
					End Site
					{
						OFFSET 0.000000 0.000000 0.000000 
					}
				}
			}
		}
	}
	JOINT Spine
	{
		OFFSET 0.028270 2.035590 -0.193380 
		CHANNELS 3 Zrotation Yrotation Xrotation
		JOINT Spine1
		{
			OFFSET 0.056720 2.048850 -0.042750 
			CHANNELS 3 Zrotation Yrotation Xrotation
			JOINT Neck1
			{
				OFFSET -0.054170 1.746240 0.172020 
				CHANNELS 3 Zrotation Yrotation Xrotation
				JOINT Head
				{
					OFFSET 0.104070 1.761360 -0.123970 
					CHANNELS 3 Zrotation Yrotation Xrotation
					End Site
					{
						OFFSET 0.000000 0.000000 0.000000 
					}
				}
			}
			JOINT LeftArm
			{
				OFFSET 3.362410 1.200890 -0.311210 
				CHANNELS 3 Zrotation Yrotation Xrotation
				JOINT LeftForeArm
				{
					OFFSET 4.983000 -0.000000 -0.000000 
					CHANNELS 3 Zrotation Yrotation Xrotation
					JOINT LeftHand
					{
						OFFSET 3.483560 -0.000000 -0.000000 
						CHANNELS 3 Zrotation Yrotation Xrotation
						JOINT LeftHandIndex1
						{
							OFFSET 0.715260 -0.000000 -0.000000 
							CHANNELS 3 Zrotation Yrotation Xrotation
							End Site
							{
								OFFSET 0.000000 0.000000 0.000000 
							}
						}
					}
				}
			}
			JOINT RightArm
			{
				OFFSET -3.136600 1.374050 -0.404650 
				CHANNELS 3 Zrotation Yrotation Xrotation
				JOINT RightForeArm
				{
					OFFSET -5.241900 -0.000000 -0.000000 
					CHANNELS 3 Zrotation Yrotation Xrotation
					JOINT RightHand
					{
						OFFSET -3.444170 -0.000000 -0.000000 
						CHANNELS 3 Zrotation Yrotation Xrotation
						JOINT RightHandIndex1
						{
							OFFSET -0.622530 -0.000000 -0.000000 
							CHANNELS 3 Zrotation Yrotation Xrotation
							End Site
							{
								OFFSET 0.000000 0.000000 0.000000 
							}
						}
					}
				}
			}
		}
	}
}
MOTION
Frames: 18
Frame Time: 0.041667
-1.490796 13.058233 -6.491213 -55.928728 -13.922038 57.633374 -8.321402 -2.940278 -63.157312 9.664692 17.947934 58.113145 0.182354 3.968461 -2.612145 3.595400 11.601700 34.337000 -11.967549 22.770094 -95.495424 -15.420372 -21.280522 77.099731 -2.390647 10.047252 14.693866 -1.345400 -7.343400 20.736900 -2.128839 -0.312496 5.501505 2.612715 -1.056714 2.704118 20.559007 -4.056487 3.911379 7.249500 -2.159900 0.401500 -6.643234 -10.233840 -9.128110 5.823890 -14.471053 -2.703202 -3.303739 1.321260 -9.977795 -7.125000 0.000000 0.000000 42.424262 -23.037401 22.911254 -9.756937 25.312355 -4.477398 1.908033 1.174762 9.773560 7.125000 0.000000 0.000000 
-1.633563 13.173254 -6.486188 -55.524829 -13.344793 57.381624 -7.500329 -3.675746 -62.267723 9.494093 17.954595 57.621196 -0.248785 4.943395 -3.336387 3.545500 11.529700 34.088000 -8.198843 23.217130 -97.762721 -15.045991 -21.189550 76.159432 -2.463605 10.541820 15.776518 -1.481800 -7.691000 21.779400 -2.452588 -0.226226 5.584902 2.967274 -1.066214 2.833932 20.542039 -4.132248 3.908363 7.348500 -2.169800 0.478300 -5.153382 -10.104132 -10.744045 5.482204 -14.033493 -2.555392 -3.293589 1.359228 -8.950096 -7.125000 0.000000 0.000000 44.570605 -23.564869 23.250820 -9.746910 25.498308 -4.429907 1.862672 1.100863 9.716906 7.125000 0.000000 0.000000 
-1.776984 13.288930 -6.480945 -54.905733 -12.660524 57.036287 -6.818092 -4.523428 -61.347210 9.285671 17.958692 57.033206 -0.677233 5.898747 -3.868283 3.390700 11.302200 33.305800 -4.421660 23.801558 -99.761581 -14.747451 -21.102815 75.436937 -2.542323 11.072697 17.063656 -1.651500 -8.099000 23.015100 -2.783497 -0.278657 5.638638 3.282891 -1.135683 2.881684 20.422782 -4.100188 3.780775 7.401300 -2.148400 0.446500 -3.639602 -9.965727 -12.446724 5.040573 -13.476423 -2.365553 -3.311662 1.403192 -7.815493 -7.125000 0.000000 0.000000 46.578605 -24.209379 24.076592 -9.917177 25.914428 -4.459921 1.809406 1.051497 9.217711 7.125000 0.000000 0.000000 
-1.922918 13.401221 -6.475265 -54.074556 -11.789042 56.585029 -6.287593 -5.458512 -60.409281 9.032227 17.952284 56.317793 -1.157679 6.953226 -4.195363 3.083000 10.828100 31.702400 -0.602816 24.441093 -101.491829 -14.519557 -21.010698 74.906222 -2.618554 11.549517 18.471921 -1.807900 -8.453900 24.101500 -3.081082 -0.480751 5.660072 3.585711 -1.268591 2.843250 20.206505 -3.963491 3.549767 7.408600 -2.094700 0.315800 -2.180417 -9.779793 -14.125328 4.559170 -12.863602 -2.158671 -3.349780 1.441059 -6.598425 -7.125000 0.000000 0.000000 48.367478 -24.967427 25.345437 -10.227288 26.504722 -4.547206 1.754030 1.019286 8.429787 7.125000 0.000000 0.000000 
-2.066121 13.514494 -6.467946 -53.061830 -10.690593 56.075982 -5.867290 -6.423331 -59.508039 8.753887 17.929574 55.523022 -1.512447 7.733818 -4.254130 2.796900 10.358900 30.146800 3.306134 25.085811 -102.911083 -14.324699 -20.902537 74.456656 -2.695952 11.962482 19.988206 -1.934300 -8.727800 24.947400 -3.319464 -0.808643 5.673592 3.886860 -1.457476 2.761820 19.926061 -3.786779 3.253140 7.378400 -2.030100 0.133300 -0.807207 -9.635112 -16.061901 4.023402 -12.172435 -1.936459 -3.390079 1.504182 -4.987515 -7.125000 0.000000 0.000000 49.915465 -25.760666 26.909633 -10.607093 27.170076 -4.658448 1.702163 0.991432 7.573777 7.125000 0.000000 0.000000 
-2.207467 13.628532 -6.458989 -51.915491 -9.375456 55.556401 -5.597582 -7.315787 -58.692053 8.457339 17.879262 54.659695 -1.728402 8.216589 -4.045853 2.560800 9.947600 28.807100 7.308455 25.727825 -104.028439 -14.138753 -20.774342 74.009590 -2.771774 12.224431 21.553019 -2.004500 -8.875500 25.406700 -3.501131 -1.232029 5.678112 4.177658 -1.688624 2.634457 19.622476 -3.607420 2.917023 7.321400 -1.972400 -0.085200 0.501690 -9.619456 -18.627788 3.391382 -11.350587 -1.691368 -3.416607 1.637079 -2.565778 -7.125000 0.000000 0.000000 51.258980 -26.571680 28.628894 -10.977873 27.816633 -4.757946 1.656447 0.953078 6.903303 7.125000 0.000000 0.000000 
-2.346300 13.745738 -6.448285 -50.676150 -7.885905 55.035272 -5.495273 -8.042989 -57.999449 8.159701 17.797093 53.778133 -1.717636 8.218164 -3.562282 2.440900 9.729700 28.105700 11.370993 26.374892 -104.800748 -13.923952 -20.624657 73.450679 -2.850629 12.258416 23.202608 -2.085100 -9.041100 25.923800 -3.616591 -1.702342 5.717089 4.478398 -1.946804 2.546948 19.356358 -3.505180 2.588198 7.261400 -1.942400 -0.262500 1.746901 -9.782220 -22.161629 2.692556 -10.429631 -1.444519 -3.407471 1.867224 0.936634 -7.125000 0.000000 0.000000 52.417496 -27.256480 30.329921 -11.266195 28.341237 -4.811007 1.619233 0.892328 6.613585 7.125000 0.000000 0.000000 
-2.484151 13.864910 -6.435614 -49.374000 -6.262481 54.528802 -5.608858 -8.526857 -57.446708 7.862011 17.675313 52.878928 -1.509894 7.802348 -2.799573 2.364700 9.587700 27.651700 15.429003 27.020636 -105.212589 -13.660287 -20.453206 72.710143 -2.938839 11.966109 24.984558 -2.254000 -9.376300 26.979600 -3.662250 -2.195436 5.792532 4.796127 -2.220612 2.523399 19.187151 -3.496610 2.280893 7.223700 -1.947900 -0.384700 2.906098 -10.099451 -26.639634 1.991351 -9.487617 -1.222540 -3.357133 2.193771 5.561587 -7.125000 0.000000 0.000000 53.401069 -27.788953 31.951101 -11.418673 28.680138 -4.794754 1.591447 0.806905 6.819792 7.125000 0.000000 0.000000 
-2.621456 13.984082 -6.420321 -47.997002 -4.542797 54.051708 -5.992400 -8.750278 -57.027923 7.566134 17.515177 51.973179 -1.138048 7.038848 -1.760910 2.263500 9.394600 27.037600 19.386885 27.622628 -105.263089 -13.336615 -20.257829 71.741053 -3.042264 11.306036 26.879371 -2.592600 -10.004400 28.990900 -3.652916 -2.710299 5.873061 5.084604 -2.501383 2.505440 19.164950 -3.564464 1.988730 7.222600 -1.995100 -0.487600 3.965872 -10.580708 -31.782032 1.334655 -8.594821 -1.036991 -3.278284 2.594646 11.262042 -7.125000 0.000000 0.000000 54.291309 -28.282263 33.438129 -11.411161 28.813995 -4.703015 1.568186 0.703044 7.535342 7.125000 0.000000 0.000000 
-2.759197 14.099977 -6.401533 -46.509107 -2.749815 53.592265 -6.714399 -8.725957 -56.721083 7.265866 17.319045 51.051721 -0.665562 6.061200 -0.434737 2.118900 9.109400 26.138200 23.113768 28.119244 -104.991210 -12.959149 -20.039322 70.559737 -3.164528 10.400030 28.797352 -2.992300 -10.682600 31.216900 -3.599802 -3.257812 5.963372 5.303077 -2.790539 2.487804 19.297197 -3.716813 1.730572 7.252100 -2.087700 -0.560400 4.927325 -11.265474 -37.203620 0.749805 -7.820235 -0.893183 -3.138089 3.076619 17.828112 -7.125000 0.000000 0.000000 55.156088 -28.761012 34.731800 -11.254014 28.746401 -4.544551 1.544129 0.595364 8.628660 7.125000 0.000000 0.000000 
-2.897703 14.210301 -6.378704 -44.886471 -0.884217 53.130443 -7.782902 -8.488483 -56.493041 6.958883 17.092098 50.122447 -0.085935 4.850782 1.204692 1.899500 8.653500 24.717300 26.484668 28.461473 -104.459665 -12.538309 -19.799989 69.230918 -3.256492 9.608455 30.078473 -3.284200 -11.141500 32.758600 -3.507688 -3.852889 6.070858 5.424052 -3.092695 2.480141 19.555934 -3.947928 1.503701 7.296700 -2.223100 -0.603400 5.777109 -12.153171 -42.090011 0.268912 -7.250698 -0.790137 -2.954144 3.571537 24.637032 -7.125000 0.000000 0.000000 56.027889 -29.248849 35.799769 -10.988460 28.513505 -4.342052 1.516694 0.501914 9.887470 7.125000 0.000000 0.000000 
-3.037192 14.315273 -6.352598 -43.120269 1.041900 52.694849 -9.172225 -8.080087 -56.319639 6.644641 16.841570 49.204870 0.602979 3.388401 3.158419 1.610600 8.002900 22.723000 29.192300 28.634676 -103.802748 -12.102687 -19.559987 67.899389 -3.214514 9.312138 29.701272 -3.439100 -11.374100 33.552200 -3.370491 -4.478582 6.190474 5.429962 -3.392919 2.513923 19.909255 -4.241998 1.282135 7.343900 -2.392200 -0.617900 6.321587 -13.029034 -41.729985 0.310626 -7.606520 -0.800950 -2.947006 3.667761 27.457106 -7.125000 0.000000 0.000000 56.935950 -29.781898 36.591993 -10.663532 28.151326 -4.118781 1.484218 0.435133 11.114894 7.125000 0.000000 0.000000 
-3.179412 14.416094 -6.324416 -41.218332 2.998953 52.304503 -10.897642 -7.462459 -56.216260 6.327465 16.572001 48.336515 1.408244 1.625373 5.438539 1.223700 7.016100 19.763200 30.892780 28.654652 -103.165565 -11.698726 -19.356068 66.669032 -2.995838 9.166607 27.268258 -3.496600 -11.458500 33.842400 -3.201643 -5.135690 6.306222 5.387898 -3.704033 2.547695 20.290677 -4.597602 1.086444 7.376700 -2.595100 -0.619400 6.802514 -14.167227 -40.270613 0.314648 -8.024291 -0.797265 -2.895757 3.793625 30.143733 -7.125000 0.000000 0.000000 57.884389 -30.417923 37.065652 -10.291685 27.701527 -3.889283 1.446258 0.404665 12.171852 7.125000 0.000000 0.000000 
-3.328841 14.509706 -6.295579 -39.233769 4.927817 51.981264 -12.930905 -6.596200 -56.236155 6.021169 16.294898 47.582479 2.287207 -0.399027 8.019860 0.732400 5.467600 15.247200 31.349206 28.621728 -102.668294 -11.377206 -19.233718 65.608043 -2.659696 8.497063 23.308326 -3.610300 -11.623000 34.411000 -2.997800 -5.778246 6.407691 5.314563 -4.006667 2.603418 20.702581 -5.008154 0.895984 7.400600 -2.830900 -0.620700 7.187805 -15.579256 -37.775711 0.313844 -8.518830 -0.789040 -2.776490 3.964136 32.579354 -7.125000 0.000000 0.000000 58.853727 -31.201674 37.258970 -9.899576 27.191582 -3.664526 1.404738 0.410276 12.960357 7.125000 0.000000 0.000000 
-3.485917 14.598948 -6.267178 -37.211724 6.769386 51.716452 -15.196823 -5.484192 -56.372982 5.744851 16.034148 47.027841 3.192363 -2.650225 10.860966 0.288900 3.456800 9.553100 30.336681 28.583026 -102.374305 -11.159096 -19.231690 64.706062 -2.164374 6.226880 18.843530 -3.985000 -12.140400 36.230600 -2.759588 -6.362270 6.485891 5.227989 -4.281169 2.669222 21.160736 -5.475297 0.695753 7.427800 -3.101800 -0.626700 7.444123 -17.281003 -34.230540 0.378069 -9.139518 -0.790578 -2.613426 4.133675 34.334835 -7.125000 0.000000 0.000000 59.819823 -32.164560 37.221802 -9.500003 26.633326 -3.449068 1.363494 0.444012 13.484590 7.125000 0.000000 0.000000 
-3.651184 14.681637 -6.239870 -35.223742 8.464138 51.451651 -17.624340 -4.124064 -56.615602 5.527326 15.822719 46.759591 4.007954 -4.904040 13.846892 0.021400 0.945100 2.597700 27.800527 28.599481 -102.288408 -11.015214 -19.352850 63.952116 -1.435539 2.503137 15.173025 -4.715400 -13.056000 39.578300 -2.487127 -6.856692 6.530127 5.184379 -4.514348 2.726439 21.667800 -5.976664 0.498462 7.482200 -3.391800 -0.629900 7.513748 -19.159287 -29.075455 0.666534 -10.015739 -0.829472 -2.496091 4.230872 34.267904 -7.125000 0.000000 0.000000 60.665605 -33.307968 37.009789 -9.079543 26.024242 -3.242348 1.327413 0.496654 13.861267 7.125000 0.000000 0.000000 
-3.821040 14.757662 -6.214856 -33.365377 9.979630 51.106238 -20.089385 -2.529102 -56.956353 5.410254 15.699605 46.870195 4.646521 -6.919352 16.797059 0.160600 -2.582200 -7.117800 23.925572 28.713910 -102.343566 -10.905292 -19.566900 63.328979 -0.567183 -1.542825 12.703209 -5.697400 -14.128500 43.754700 -2.189597 -7.231063 6.541502 5.155631 -4.686827 2.729486 22.239862 -6.508642 0.333745 7.578400 -3.693100 -0.609500 7.367247 -21.241334 -22.678714 1.275221 -11.187129 -0.921910 -2.466527 4.196550 32.185546 -7.125000 0.000000 0.000000 61.388511 -34.628724 36.570905 -8.629203 25.352948 -3.041633 1.296149 0.554177 14.277844 7.125000 0.000000 0.000000 
-3.989366 14.828116 -6.193447 -31.733486 11.323222 50.631347 -22.410579 -0.782808 -57.377657 5.443313 15.703367 47.440020 5.062874 -8.457912 19.427516 1.124500 -6.735800 -18.934900 19.107826 28.951358 -102.453413 -10.811811 -19.839882 62.846583 0.223426 -4.928044 11.085706 -6.709200 -15.082100 47.765900 -1.878102 -7.486183 6.518080 5.134406 -4.794716 2.631576 22.850471 -7.038804 0.247329 7.722500 -3.979300 -0.542600 6.990084 -23.416849 -15.313110 2.305334 -12.701593 -1.093860 -2.495642 4.000957 27.995776 -7.125000 0.000000 0.000000 61.870772 -36.087505 36.033882 -8.148106 24.635200 -2.846777 1.270913 0.612272 14.810447 7.125000 0.000000 0.000000 
